<svg version="1.2" xmlns="http://www.w3.org/2000/svg" viewBox="0 0 100 74" width="100" height="74"><style>.a{fill:#f00}.b{fill:#00732f}.c{fill:#fff}</style><path class="a" d="m25 0v74l-4.1-0.1c-3.4 0-4.2-0.1-5.6-0.5-0.8-0.2-2.2-0.7-3.1-1.1-0.9-0.4-2.3-1.1-3.1-1.7-0.9-0.6-2.3-1.7-3.1-2.6-0.9-0.8-2-2.2-2.6-3.1-0.6-0.8-1.3-2.3-1.7-3.2-0.4-0.9-0.9-2.4-1.2-3.2-0.4-1.6-0.4-1.6-0.4-21.5 0-19.9 0-19.9 0.4-21.5 0.3-0.8 0.7-2.2 1.1-3.1 0.4-0.9 1.1-2.2 1.5-2.9 0.5-0.8 1.4-1.9 2-2.6 0.5-0.6 1.5-1.6 2.1-2.1 0.6-0.5 1.8-1.4 2.7-1.9 0.8-0.5 2.2-1.2 3.1-1.6 0.8-0.3 2.3-0.7 3.2-0.9 1.2-0.3 2.6-0.4 8.8-0.4z"/><path class="b" d="m25 0h28.4c25.2 0 28.6 0 29.9 0.3 0.9 0.2 2.1 0.5 2.7 0.7 0.7 0.2 1.8 0.7 2.6 1.1 0.7 0.4 1.8 1 2.4 1.4 0.6 0.4 1.7 1.3 2.5 2.1 0.8 0.7 1.9 1.9 2.4 2.6 0.5 0.7 1.3 1.9 1.7 2.7 0.5 0.8 1 2.2 1.3 3 0.3 0.8 0.7 2.1 0.8 3 0.2 0.9 0.3 2.7 0.3 7.5h-75v-12.2z"/><path class="c" d="m25 24.4h75v25h-75v-12.5z"/><path  d="m25 49.4h75l-0.1 3.7c0 3.2-0.1 3.9-0.6 5.6-0.2 1-0.9 2.7-1.3 3.7-0.5 0.9-1.4 2.4-2.1 3.3-0.6 0.9-1.7 2.1-2.5 2.8-0.7 0.7-1.9 1.6-2.6 2.1-0.7 0.4-1.7 1.1-2.3 1.4-0.6 0.3-1.7 0.7-2.5 1-0.7 0.2-2 0.6-2.9 0.7-1.3 0.3-5.5 0.3-58.1 0.3v-12.3z"/></svg>