<svg version="1.2" xmlns="http://www.w3.org/2000/svg" viewBox="0 0 100 74" width="100" height="74"><style>.a{fill:#38478a}.b{fill:#6787f5}.c{fill:#ff337a}.d{fill:#d1005b}.e{fill:#fff}.f{fill:#c7d3ed}</style><path class="a" d="m62.9 0h11.6l-5.7 5.7c-3.1 3.1-5.7 5.6-5.8 5.6 0 0-0.1-2.5-0.1-5.6zm30.9 5.8c0.2 0 0.7 0.6 1.2 1.2 0.6 0.6 1.4 1.7 1.8 2.4 0.4 0.7 1.1 1.9 1.5 2.8 0.4 0.8 0.9 2.2 1.1 3.1 0.4 1.3 0.5 2.2 0.6 8.7h-24.5l9.1-9.1c5-5 9.1-9.1 9.2-9.1zm-18.3 44.1h24.5l-0.1 3.6c0 2.9-0.1 3.9-0.5 5.1-0.2 0.9-0.7 2.3-1.1 3.2-0.4 0.8-1.1 2.1-1.5 2.7-0.4 0.7-1.2 1.8-1.8 2.4-0.5 0.7-1.1 1.2-1.2 1.1-0.2 0-4.4-4.1-9.3-9zm-12.3 12.7c0 0 2.6 2.5 11.3 11.3h-11.6l-0.1-5.5c0-3.1 0.1-5.6 0.2-5.7 0.1-0.1 0.2-0.1 0.2-0.1z"/><path class="b" d="m25.5 0h11.6v5.7c0 3.1-0.1 5.6-0.1 5.6-0.1 0-2.7-2.5-5.8-5.6zm-19.3 5.6c0 0 4.1 4.2 18.3 18.4h-24.5v-3.6c0.1-2.8 0.2-3.9 0.5-5 0.2-0.8 0.7-2.2 1.1-3 0.3-0.9 1-2.2 1.5-3 0.5-0.7 1.4-1.9 2-2.6 0.5-0.6 1-1.2 1.1-1.2zm-6.3 44.3h24.6l-9.1 9.1c-5 5-9.2 9.1-9.3 9.1-0.1-0.1-0.6-0.6-1.2-1.2-0.5-0.6-1.3-1.7-1.8-2.4-0.5-0.8-1.2-2.1-1.5-2.9-0.4-0.9-0.9-2.3-1.1-3.1-0.3-1.1-0.4-2.2-0.5-5zm36.7 12.8v1.5c0.1 0.8 0.1 3.3-0.1 9.7h-11l5.5-5.6z"/><path fill-rule="evenodd" class="c" d="m43 0h7v74h-7.6l0.1-3.6c0-1.9 0.1-7.3 0.2-11.9 0-4.6 0.1-9.8 0.3-14.4h-43v-14.2h43zm-25.9 0.2c0.1 0 5.1 4.8 21.9 21.6l0.1 4.1h-4.2l-23.8-23.7 1.1-0.5c0.7-0.3 1.8-0.7 2.5-0.9 0.7-0.2 1.5-0.4 1.7-0.5 0.3 0 0.6-0.1 0.7-0.1zm17.8 47.8h4.1v4.1l-21.7 21.7-0.7-0.1c-0.4-0.1-1.3-0.3-2-0.5-0.6-0.2-1.7-0.7-3.5-1.5z"/><path fill-rule="evenodd" class="d" d="m50 0h7v29.9h43v14.2h-43v29.9h-7zm32.7 0.2l0.7 0.1c0.4 0.1 1.3 0.3 2 0.5 0.6 0.2 1.7 0.6 3.5 1.4l-23.8 23.8h-4.2l-0.1-4zm-21.7 47.8h4.2l11.8 11.8c11.2 11.3 11.8 11.9 11.4 12.1-0.2 0.2-0.9 0.5-1.4 0.7-0.6 0.3-1.9 0.6-4.4 1.3l-21.6-21.9z"/><path class="e" d="m25.5 0l5.7 5.7c3.1 3.1 5.7 5.6 5.8 5.6 0 0 0.1-2.5 0.1-11.3h5.9v29.9h-43v-5.9h24.5l-18.3-18.2 1-0.9c0.5-0.5 1.6-1.3 3.8-2.8l23.9 23.9h4.2v-4l-10.8-10.8c-6.9-6.8-10.7-10.8-10.6-11 0.1-0.1 1.1-0.2 7.8-0.2zm-25.5 44.1h43l-0.1 3c-0.1 1.6-0.2 6.8-0.2 11.4-0.1 4.6-0.2 10-0.3 15.5h-5.9l0.3-11.2-11.3 11.2h-3.7c-2.1 0-3.9-0.1-4-0.2-0.3-0.1 1.9-2.4 21.3-21.8v-4h-4.2l-23.9 23.9-1.4-1c-0.8-0.5-1.9-1.3-3.4-2.7l18.3-18.2h-24.5v-2.9z"/><path class="f" d="m57 0h5.9v5.7c0 3.1 0.1 5.6 0.1 5.6 0.1 0 2.7-2.5 11.5-11.3h3.8c2.1 0 3.9 0.1 4.1 0.1 0.1 0.1-3.5 3.9-21.5 21.9v4h4.2l23.9-23.9 1.7 1.2c1 0.7 2.1 1.5 3.1 2.4l-18.3 18.3h24.5v5.9h-43v-15zm0 44.2h43v5.8l-24.4 0.1 18.2 18.3-0.8 0.6c-0.4 0.4-1 0.8-1.3 1.1-0.3 0.2-1.1 0.7-2.7 1.8l-23.9-23.8h-4.2v3.9l10.8 10.9c6.9 7 10.6 10.9 10.5 11-0.2 0.1-1.9 0.1-7.7 0.1l-5.7-5.6c-3.1-3.1-5.7-5.6-5.8-5.6 0 0.1-0.1 2.6-0.1 11.2h-5.9v-14.9z"/></svg>