<svg xmlns="http://www.w3.org/2000/svg" viewBox="0 0 24 24"><path d="M19,14c-2.76,0-5,2.24-5,5s2.24,5,5,5s5-2.24,5-5S21.76,14,19,14z M19.43,22.14v0.4c0,0.26-0.2,0.46-0.45,0.46	c-0.26,0-0.46-0.2-0.46-0.46v-0.32c-0.38-0.04-0.7-0.15-0.95-0.3c-0.31-0.17-0.39-0.58-0.19-0.87l0.02-0.03	c0.17-0.25,0.5-0.35,0.77-0.21c0.16,0.08,0.36,0.15,0.59,0.15c0.51,0,0.6-0.44,0.6-0.63c0-1.03-2.06-0.68-2.06-2.65	c0-0.9,0.5-1.6,1.26-1.85v-0.37c0-0.26,0.21-0.46,0.46-0.46s0.46,0.2,0.46,0.46v0.27c0.29,0.03,0.53,0.1,0.72,0.18	c0.35,0.16,0.47,0.6,0.24,0.92c-0.17,0.24-0.49,0.36-0.77,0.24c-0.11-0.06-0.25-0.09-0.41-0.09c-0.15,0-0.61,0.06-0.61,0.64	c0,0.98,2.08,0.72,2.08,2.61C20.73,21.11,20.28,21.88,19.43,22.14z"></path><path d="M18.255,12.041C18.5,12.015,18.748,12,19,12c0.695,0,1.366,0.105,2,0.294V11c0-7-6-7-6-7c0-1.105-0.895-2-2-2h-1	c-4.971,0-9,4.029-9,9v3c0,0.552,0.448,1,1,1s1-0.293,1-1c0-1.64,1.343-3,3-3h8C16.904,11,17.705,11.408,18.255,12.041z"></path><path d="M20.633,15.042c-0.053-0.062-0.118-0.111-0.18-0.165C20.774,14.711,21,14.386,21,14v-1.706	c-0.401-0.119-0.821-0.191-1.248-0.238C18.882,8.579,15.746,6,12,6c-4.418,0-8,3.582-8,8c0,0.197,0.015,0.39,0.029,0.583	C3.433,14.781,3,15.337,3,16c0,0.828,0.672,1.5,1.5,1.5c0.103,0,0.203-0.01,0.3-0.03C6.093,20.148,8.827,22,12,22	c1.043,0,2.031-0.217,2.944-0.581c0.782,1.328,2.212,2.23,3.865,2.23c2.485,0,4.5-2.015,4.5-4.5	C23.309,17.315,22.207,15.743,20.633,15.042z" opacity=".35"></path></svg>